<svg width="600" height="600" viewBox="0 0 600 600" fill="none" xmlns="http://www.w3.org/2000/svg">
<path d="M528.851 316.512C531.251 284.628 523.835 251.34 513.899 221.712C499.199 177.6 470.495 132.396 422.255 121.956C394.439 115.956 366.131 122.388 342.275 137.46C319.343 151.956 301.475 170.688 273.263 174.312C244.739 177.984 215.471 176.508 186.803 176.508C113.087 176.508 53.2674 253.944 68.2194 334.608C83.1714 415.272 153.683 471.204 213.503 471.204C267.263 471.204 311.495 438.96 362.555 430.296C387.875 426 413.303 431.088 438.359 424.656C467.483 417.168 494.867 399.324 511.007 373.488C521.999 355.872 527.351 336.468 528.851 316.512Z" fill="#FF9900" fill-opacity="0.5"/>
<path opacity="0.7" d="M528.851 316.512C531.251 284.628 523.835 251.34 513.899 221.712C499.199 177.6 470.495 132.396 422.255 121.956C394.439 115.956 366.131 122.388 342.275 137.46C319.343 151.956 301.475 170.688 273.263 174.312C244.739 177.984 215.471 176.508 186.803 176.508C113.087 176.508 53.2674 253.944 68.2194 334.608C83.1714 415.272 153.683 471.204 213.503 471.204C267.263 471.204 311.495 438.96 362.555 430.296C387.875 426 413.303 431.088 438.359 424.656C467.483 417.168 494.867 399.324 511.007 373.488C521.999 355.872 527.351 336.468 528.851 316.512Z" fill="white"/>
<path d="M520.224 305.316C520.224 305.316 520.224 299.316 511.824 291C503.424 282.684 498.096 277.86 498.096 277.86C498.096 277.86 493.92 291.588 501.696 299.952C507.405 305.826 513.594 311.213 520.201 316.056L520.224 305.316Z" fill="#FF9900"/>
<path d="M508.104 342.588C508.104 342.588 508.104 336.588 499.704 328.272C491.304 319.956 486 315.132 486 315.132C486 315.132 481.812 328.86 489.6 337.224C495.308 343.098 501.498 348.485 508.104 353.328V342.588Z" fill="#FF9900"/>
<path d="M519.696 315.48C519.696 315.48 520.332 309.552 529.524 302.124C538.716 294.696 544.56 290.52 544.56 290.52C544.56 290.52 547.26 304.608 538.668 312.12C532.372 317.36 525.648 322.064 518.568 326.184L519.696 315.48Z" fill="#FF9900"/>
<path d="M505.057 359.496C505.057 359.496 506.257 353.664 516.229 347.244C526.201 340.824 532.393 337.284 532.393 337.284C532.393 337.284 533.593 351.588 524.269 358.128C517.456 362.678 510.275 366.652 502.801 370.008L505.057 359.496Z" fill="#FF9900"/>
<path d="M507.805 407.496C507.805 407.496 507.805 401.496 516.205 393.168C524.605 384.84 529.921 380.04 529.921 380.04C529.921 380.04 534.109 393.768 526.321 402.12C520.615 408 514.425 413.391 507.817 418.236L507.805 407.496Z" fill="#FF9900"/>
<path d="M507.672 419.208C507.672 419.208 508.512 413.304 501.432 403.848C494.352 394.392 489.708 388.896 489.708 388.896C489.708 388.896 483.624 401.892 490.116 411.264C494.929 417.892 500.287 424.106 506.136 429.84L507.672 419.208Z" fill="#FF9900"/>
<path d="M499.428 453.924C499.428 453.924 499.428 447.924 507.828 439.608C516.228 431.292 521.556 426.468 521.556 426.468C521.556 426.468 525.732 440.196 517.956 448.56C512.246 454.436 506.056 459.827 499.452 464.676L499.428 453.924Z" fill="#FF9900"/>
<path d="M505.009 485.4C505.009 485.4 503.497 479.628 509.461 469.428C515.425 459.228 519.421 453.252 519.421 453.252C519.421 453.252 526.933 465.468 521.545 475.524C517.514 482.653 512.894 489.433 507.733 495.792L505.009 485.4Z" fill="#FF9900"/>
<path d="M520.981 303.792C520.561 310.005 519.8 316.19 518.701 322.32C515.389 339.384 507.133 350.4 503.833 365.808C500.533 381.216 510.013 401.076 507.433 420.876C504.853 440.676 497.197 451.68 499.393 464.892C501.589 478.104 513.157 513.888 513.157 513.888" stroke="#263238" stroke-linecap="round" stroke-linejoin="round"/>
<path d="M519.625 319.452L528.625 312.54" stroke="#263238" stroke-linecap="round" stroke-linejoin="round"/>
<path d="M520.044 311.496L516.264 304.788" stroke="#263238" stroke-linecap="round" stroke-linejoin="round"/>
<path d="M504.336 365.1C504.336 365.1 511.872 359.448 519.624 353.796" stroke="#263238" stroke-linecap="round" stroke-linejoin="round"/>
<path d="M508.103 353.328C508.103 353.328 501.815 341.016 494.699 332.856" stroke="#263238" stroke-linecap="round" stroke-linejoin="round"/>
<path d="M508.104 415.992C512.402 408.047 517.835 400.771 524.232 394.392" stroke="#263238" stroke-linecap="round" stroke-linejoin="round"/>
<path d="M506.639 424.368C504.353 418.981 501.619 413.795 498.467 408.864C494.075 402.372 493.439 401.532 493.439 401.532" stroke="#263238" stroke-linecap="round" stroke-linejoin="round"/>
<path d="M499.428 464.892C501.341 460.162 503.612 455.585 506.22 451.2C508.83 447.124 511.772 443.271 515.016 439.68" stroke="#263238" stroke-linecap="round" stroke-linejoin="round"/>
<path d="M507.732 495.792C507.294 491.269 508.073 486.712 509.988 482.592C513.132 476.52 516.684 468.564 518.148 465.42" stroke="#263238" stroke-linecap="round" stroke-linejoin="round"/>
<path d="M452.04 385.056C452.04 385.056 451.392 381.312 455.724 375.156C460.056 369 462.924 365.436 462.924 365.436C462.924 365.436 467.028 373.596 463.068 379.668C460.127 383.975 456.832 388.029 453.216 391.788L452.04 385.056Z" fill="#FF9900"/>
<path d="M463.693 407.112C463.693 407.112 463.045 403.368 467.377 397.212C471.709 391.056 474.577 387.492 474.577 387.492C474.577 387.492 478.681 395.652 474.721 401.736C471.777 406.037 468.482 410.087 464.869 413.844L463.693 407.112Z" fill="#FF9900"/>
<path d="M453.468 391.368C453.468 391.368 452.436 387.768 445.86 384.06C439.284 380.352 435.18 378.408 435.18 378.408C435.18 378.408 435.012 387.54 441.18 391.308C445.696 393.907 450.42 396.127 455.304 397.944L453.468 391.368Z" fill="#FF9900"/>
<path d="M467.437 417.384C467.437 417.384 466.021 413.856 459.109 410.904C452.197 407.952 447.877 406.416 447.877 406.416C447.877 406.416 448.669 415.512 455.245 418.608C460.01 420.719 464.943 422.429 469.993 423.72L467.437 417.384Z" fill="#FF9900"/>
<path d="M470.917 447.78C470.917 447.78 470.281 444.036 464.125 439.704C457.969 435.372 454.093 432.96 454.093 432.96C454.093 432.96 452.965 442.02 458.737 446.412C462.953 449.482 467.421 452.192 472.093 454.512L470.917 447.78Z" fill="#FF9900"/>
<path d="M472.284 455.112C472.284 455.112 471.084 451.512 474.528 444.792C477.972 438.072 480.252 434.148 480.252 434.148C480.252 434.148 485.472 441.636 482.424 448.224C480.128 452.901 477.443 457.377 474.396 461.604L472.284 455.112Z" fill="#FF9900"/>
<path d="M482.773 485.292C482.773 485.292 483.205 481.524 489.097 476.892C494.989 472.26 498.697 469.584 498.697 469.584C498.697 469.584 500.341 478.572 494.833 483.288C490.798 486.589 486.496 489.547 481.969 492.132L482.773 485.292Z" fill="#FF9900"/>
<path d="M481.2 475.98C481.2 475.98 480.552 472.236 474.408 467.904C468.264 463.572 464.4 461.16 464.4 461.16C464.4 461.16 463.272 470.22 469.044 474.624C473.263 477.689 477.731 480.399 482.4 482.724L481.2 475.98Z" fill="#FF9900"/>
<path d="M481.199 496.332C481.199 496.332 481.511 492.54 476.663 486.792C471.815 481.044 468.671 477.732 468.671 477.732C468.671 477.732 465.275 486.204 469.751 491.928C473.032 495.959 476.645 499.708 480.551 503.136L481.199 496.332Z" fill="#FF9900"/>
<path d="M451.404 384.168C452.343 388.02 453.493 391.818 454.848 395.544C458.772 405.888 465.144 411.9 468.888 421.2C472.632 430.5 468.888 444 472.584 456.132C476.28 468.264 482.4 474.336 482.4 482.856C482.4 491.376 479.088 515.076 479.088 515.076" stroke="#263238" stroke-linecap="round" stroke-linejoin="round"/>
<path d="M453.96 393.84L447.564 390.492" stroke="#263238" stroke-linecap="round" stroke-linejoin="round"/>
<path d="M452.832 388.896L454.464 384.288" stroke="#263238" stroke-linecap="round" stroke-linejoin="round"/>
<path d="M468.491 420.816C468.491 420.816 463.151 418.092 457.691 415.38" stroke="#263238" stroke-linecap="round" stroke-linejoin="round"/>
<path d="M464.855 413.844C466.43 408.899 468.5 404.127 471.035 399.6" stroke="#263238" stroke-linecap="round" stroke-linejoin="round"/>
<path d="M471.661 453.132C468.1 448.626 463.905 444.661 459.205 441.36" stroke="#263238" stroke-linecap="round" stroke-linejoin="round"/>
<path d="M473.484 458.22C474.338 454.599 475.49 451.055 476.928 447.624C478.98 443.076 479.328 442.476 479.328 442.476" stroke="#263238" stroke-linecap="round" stroke-linejoin="round"/>
<path d="M482.111 489.324C484.192 486.745 486.497 484.356 488.999 482.184C490.591 481.012 492.084 479.712 493.463 478.296" stroke="#263238" stroke-linecap="round" stroke-linejoin="round"/>
<path d="M482.401 482.856C480.686 480.09 478.765 477.459 476.653 474.984C474.573 472.713 472.309 470.618 469.885 468.72" stroke="#263238" stroke-linecap="round" stroke-linejoin="round"/>
<path d="M480.553 503.136C480.338 500.25 479.356 497.475 477.709 495.096C475.081 491.628 471.985 487.02 470.725 485.208" stroke="#263238" stroke-linecap="round" stroke-linejoin="round"/>
<path d="M111.203 332.784L105.947 317.772L111.203 324.144L107.075 301.62L113.459 317.772L115.715 286.224L119.471 316.26L123.599 310.26V317.772L128.483 307.632L125.855 325.272L130.355 322.272L123.227 332.028L111.203 332.784Z" fill="#FF9900"/>
<path d="M127.727 329.028H108.203L111.719 368.448H124.211L127.727 329.028Z" fill="#263238" stroke="#263238" stroke-linecap="round" stroke-linejoin="round"/>
<path d="M164.352 368.004H97.8359V508.884H164.352V368.004Z" fill="white" stroke="#263238" stroke-linecap="round" stroke-linejoin="round"/>
<path d="M167.988 368.004H131.088V508.884H167.988V368.004Z" fill="white" stroke="#263238" stroke-linecap="round" stroke-linejoin="round"/>
<path d="M163.836 368.004H131.088V508.884H163.836V368.004Z" fill="#263238" stroke="#263238" stroke-linecap="round" stroke-linejoin="round"/>
<path d="M160.152 476.124H131.088V504.972H160.152V476.124Z" fill="#FF9900" stroke="#263238" stroke-linecap="round" stroke-linejoin="round"/>
<path d="M160.152 477.684H131.088V481.38H160.152V477.684Z" fill="white" stroke="#263238" stroke-linecap="round" stroke-linejoin="round"/>
<path d="M160.152 498.924H131.088V502.62H160.152V498.924Z" fill="white" stroke="#263238" stroke-linecap="round" stroke-linejoin="round"/>
<path d="M136.596 476.724V513.204" stroke="#263238" stroke-linecap="round" stroke-linejoin="round"/>
<path d="M146.736 476.724V513.204" stroke="#263238" stroke-linecap="round" stroke-linejoin="round"/>
<path d="M155.641 476.724V513.204" stroke="#263238" stroke-linecap="round" stroke-linejoin="round"/>
<path d="M160.152 373.236H131.088V415.656H160.152V373.236Z" fill="#FF9900" stroke="#263238" stroke-linecap="round" stroke-linejoin="round"/>
<path d="M160.152 375.012H131.088V379.212H160.152V375.012Z" fill="white" stroke="#263238" stroke-linecap="round" stroke-linejoin="round"/>
<path d="M160.152 402.204H131.088V406.404H160.152V402.204Z" fill="white" stroke="#263238" stroke-linecap="round" stroke-linejoin="round"/>
<path d="M136.596 373.908V415.368" stroke="#263238" stroke-linecap="round" stroke-linejoin="round"/>
<path d="M146.736 373.908V415.368" stroke="#263238" stroke-linecap="round" stroke-linejoin="round"/>
<path d="M155.641 373.908V415.368" stroke="#263238" stroke-linecap="round" stroke-linejoin="round"/>
<path d="M160.152 424.356H131.088V466.776H160.152V424.356Z" fill="#FF9900" stroke="#263238" stroke-linecap="round" stroke-linejoin="round"/>
<path d="M160.152 426.132H131.088V430.332H160.152V426.132Z" fill="white" stroke="#263238" stroke-linecap="round" stroke-linejoin="round"/>
<path d="M160.152 453.324H131.088V457.524H160.152V453.324Z" fill="white" stroke="#263238" stroke-linecap="round" stroke-linejoin="round"/>
<path d="M136.596 425.04V466.488" stroke="#263238" stroke-linecap="round" stroke-linejoin="round"/>
<path d="M146.736 425.04V466.488" stroke="#263238" stroke-linecap="round" stroke-linejoin="round"/>
<path d="M155.641 425.04V466.488" stroke="#263238" stroke-linecap="round" stroke-linejoin="round"/>
<path d="M164.34 415.068H131.088V419.892H164.34V415.068Z" fill="white" stroke="#263238" stroke-linecap="round" stroke-linejoin="round"/>
<path d="M164.34 466.512H131.088V471.336H164.34V466.512Z" fill="white" stroke="#263238" stroke-linecap="round" stroke-linejoin="round"/>
<path d="M164.34 368.004V508.872" stroke="#263238" stroke-linecap="round" stroke-linejoin="round"/>
<path d="M126.396 368.004V508.872H131.088V373.236H163.764V367.944L126.396 368.004Z" fill="white" stroke="#263238" stroke-linecap="round" stroke-linejoin="round"/>
<path d="M131.088 373.236V368.004" stroke="#263238" stroke-linecap="round" stroke-linejoin="round"/>
<path d="M164.087 303.288C160.595 296.556 159.131 291.732 159.131 290.616C159.131 288.408 163.931 287.088 163.931 287.088C171.419 283.128 206.639 288.852 222.491 291.492C231.365 293.039 240.342 293.922 249.347 294.132C249.347 294.132 251.543 292.38 254.147 290.172C256.751 287.964 269.111 273.444 273.959 272.172C278.807 270.9 283.199 273.936 283.199 273.936C283.199 273.936 291.131 278.736 289.799 279.66C288.467 280.584 269.111 297.264 264.263 300.348C259.415 303.432 249.299 302.112 240.491 303.876C232.907 305.388 202.187 307.26 195.143 307.836C189.853 309.091 184.301 308.629 179.291 306.516" fill="white"/>
<path d="M283.283 273.888C283.283 273.888 278.879 270.804 274.043 272.124C269.207 273.444 256.871 287.976 254.231 290.124C251.591 292.272 249.431 294.084 249.431 294.084C240.426 293.874 231.449 292.991 222.575 291.444C206.723 288.804 171.503 283.044 164.015 287.04C164.015 287.04 159.215 288.36 159.215 290.568C159.382 291.803 159.7 293.012 160.163 294.168L160.823 294.408C160.823 294.408 169.619 293.484 188.603 293.94C207.587 294.396 251.495 297 254.315 298.02C255.515 298.476 264.023 296.556 273.455 293.22C280.655 287.352 289.115 280.02 289.967 279.504C291.215 278.724 283.283 273.888 283.283 273.888Z" fill="#FF9900"/>
<path opacity="0.5" d="M283.283 273.888C283.283 273.888 278.879 270.804 274.043 272.124C269.207 273.444 256.871 287.976 254.231 290.124C251.591 292.272 249.431 294.084 249.431 294.084C240.426 293.874 231.449 292.991 222.575 291.444C206.723 288.804 171.503 283.044 164.015 287.04C164.015 287.04 159.215 288.36 159.215 290.568C159.382 291.803 159.7 293.012 160.163 294.168L160.823 294.408C160.823 294.408 169.619 293.484 188.603 293.94C207.587 294.396 251.495 297 254.315 298.02C255.515 298.476 264.023 296.556 273.455 293.22C280.655 287.352 289.115 280.02 289.967 279.504C291.215 278.724 283.283 273.888 283.283 273.888Z" fill="white"/>
<path d="M164.087 303.288C160.595 296.556 159.131 291.732 159.131 290.616C159.131 288.408 163.931 287.088 163.931 287.088C171.419 283.128 206.639 288.852 222.491 291.492C231.365 293.039 240.342 293.922 249.347 294.132C249.347 294.132 251.543 292.38 254.147 290.172C256.751 287.964 269.111 273.444 273.959 272.172C278.807 270.9 283.199 273.936 283.199 273.936C283.199 273.936 291.131 278.736 289.799 279.66C288.467 280.584 269.111 297.264 264.263 300.348C259.415 303.432 249.299 302.112 240.491 303.876C232.907 305.388 202.187 307.26 195.143 307.836C189.853 309.091 184.301 308.629 179.291 306.516" stroke="#263238" stroke-linecap="round" stroke-linejoin="round"/>
<path d="M337.978 342.432C338.775 340.92 339.97 339.655 341.433 338.773C342.897 337.891 344.574 337.426 346.282 337.428H426.322C426.322 337.428 432.106 337.428 430.378 348.42C428.65 359.412 404.914 426.528 399.178 446.82C393.442 467.112 392.23 509.88 392.23 509.88H296.23C296.23 509.88 303.838 407.604 337.978 342.432Z" fill="white"/>
<path opacity="0.16" d="M374.027 337.428H346.283C344.574 337.426 342.897 337.891 341.433 338.773C339.97 339.655 338.775 340.92 337.978 342.432C303.838 407.604 296.146 509.844 296.146 509.844H339.203L349.822 469.512L394.103 478.644C394.415 475.26 394.774 471.816 395.194 468.42L394.222 457.62C394.222 457.62 385.15 448.08 382.294 445.692C379.438 443.304 381.335 438.996 380.855 420.384C380.375 401.772 363.671 388.392 357.455 376.932C351.239 365.472 360.802 358.308 369.394 346.848C372.454 342.708 373.703 339.66 374.027 337.428Z" fill="black"/>
<path d="M337.978 342.432C338.775 340.92 339.97 339.655 341.433 338.773C342.897 337.891 344.574 337.426 346.282 337.428H426.322C426.322 337.428 432.106 337.428 430.378 348.42C428.65 359.412 404.914 426.528 399.178 446.82C393.442 467.112 392.23 509.88 392.23 509.88H296.23C296.23 509.88 303.838 407.604 337.978 342.432Z" stroke="#263238" stroke-linecap="round" stroke-linejoin="round"/>
<path d="M412.439 356.52C404.351 375.396 387.239 450.12 384.455 509.844H392.183C392.183 509.844 393.383 467.028 399.131 446.784C404.879 426.54 428.639 359.412 430.331 348.384C432.023 337.356 426.275 337.392 426.275 337.392C426.275 337.392 418.931 341.388 412.439 356.52Z" fill="#263238" stroke="#263238" stroke-linecap="round" stroke-linejoin="round"/>
<path d="M271.835 318.792C271.835 318.792 259.067 311.304 254.231 298.104C249.395 284.904 292.091 263.76 310.631 262.44C329.171 261.12 334.403 265.956 345.431 284.892C356.459 303.828 363.923 329.796 358.199 342.564C352.475 355.332 342.791 358.416 349.799 368.964C356.807 379.512 376.655 409.464 375.335 423.552C374.015 437.64 360.371 449.952 340.535 451.296C320.699 452.64 294.299 440.724 272.291 421.296C250.283 401.868 255.995 373.296 263.891 364.056C271.787 354.816 283.703 351.288 284.579 342.048C285.455 332.808 271.835 318.792 271.835 318.792Z" fill="#263238" stroke="#263238" stroke-linecap="round" stroke-linejoin="round"/>
<path d="M326.256 297.9C333.036 310.524 341.52 327.432 344.172 337.644C348.804 355.524 324.972 366.78 331.584 375.384" stroke="white" stroke-linecap="round" stroke-linejoin="round"/>
<path d="M317.016 281.364C317.016 281.364 319.656 285.864 323.304 292.488" stroke="white" stroke-linecap="round" stroke-linejoin="round"/>
<path d="M352.584 313.128C353.366 315.494 353.873 317.942 354.096 320.424" stroke="white" stroke-linecap="round" stroke-linejoin="round"/>
<path d="M321.6 274.8C321.6 274.8 342.456 290.208 350.784 308.652" stroke="white" stroke-linecap="round" stroke-linejoin="round"/>
<path d="M292.654 286.356C277.762 290.532 256.342 297.312 258.082 301.224" stroke="white" stroke-linecap="round" stroke-linejoin="round"/>
<path d="M306.42 282.684C306.42 282.684 303.24 283.476 298.5 284.748" stroke="white" stroke-linecap="round" stroke-linejoin="round"/>
<path d="M288 274.908C296.53 272.22 305.464 271.042 314.4 271.428" stroke="white" stroke-linecap="round" stroke-linejoin="round"/>
<path d="M281.928 277.392C283.276 276.69 284.672 276.08 286.104 275.568" stroke="white" stroke-linecap="round" stroke-linejoin="round"/>
<path d="M159.131 290.616C159.126 290.7 159.126 290.784 159.131 290.868C159.126 290.784 159.126 290.7 159.131 290.616ZM164.087 303.288C162.066 299.587 160.456 295.676 159.287 291.624C160.451 295.678 162.061 299.59 164.087 303.288ZM159.155 290.94C159.155 291.012 159.155 291.096 159.155 291.204C159.179 291.096 159.167 291.012 159.155 290.94ZM159.215 291.276C159.23 291.394 159.254 291.51 159.287 291.624C159.254 291.51 159.23 291.394 159.215 291.276ZM164.087 303.276C168.575 311.777 174.159 319.652 180.695 326.7C196.547 343.872 242.339 388.788 246.695 391.872C251.051 394.956 249.779 403.752 246.695 412.56C243.611 421.368 232.163 434.16 232.607 448.224C233.051 462.288 237.407 483.888 237.011 488.292C236.615 492.696 225.599 507.672 225.599 507.672H339.191C339.191 507.672 325.031 489.672 325.031 483.516C325.031 477.36 344.471 398.484 345.347 392.76C346.223 387.036 342.707 383.076 335.663 382.632C328.619 382.188 301.763 376.464 300.443 372.06C299.123 367.656 307.487 350.928 307.487 350.928L281.087 352.248C281.087 352.248 279.767 363.696 278.003 365.904C276.239 368.112 273.599 363.696 267.431 360.624C261.263 357.552 249.431 354.9 244.979 351.372C240.527 347.844 198.311 308.172 198.311 308.172" fill="white"/>
<path d="M251.723 354.769C253.919 358.609 256.115 362.077 256.115 362.077C256.115 362.077 263.519 366.241 265.367 366.241C267.215 366.241 278.327 372.241 278.327 372.241C278.327 372.241 287.591 369.925 284.327 362.053C283.297 360.037 281.997 358.172 280.463 356.509C279.911 360.001 279.023 364.573 277.979 365.881C276.215 368.077 273.575 363.673 267.407 360.601C263.411 358.609 256.943 356.785 251.723 354.769Z" fill="#FF9900"/>
<path d="M229.116 336.948C215.52 324.36 198.312 308.22 198.312 308.22L188.304 306.78L187.104 307.452C187.104 307.452 215.352 332.448 221.364 335.232C223.796 336.35 226.439 336.935 229.116 336.948Z" fill="#FF9900"/>
<path d="M243.359 349.98L242.279 349.021C242.831 349.933 243.143 350.508 243.143 350.508L243.359 349.98Z" fill="#FF9900"/>
<g opacity="0.5">
<path opacity="0.5" d="M251.723 354.769C253.919 358.609 256.115 362.077 256.115 362.077C256.115 362.077 263.519 366.241 265.367 366.241C267.215 366.241 278.327 372.241 278.327 372.241C278.327 372.241 287.591 369.925 284.327 362.053C283.297 360.037 281.997 358.172 280.463 356.509C279.911 360.001 279.023 364.573 277.979 365.881C276.215 368.077 273.575 363.673 267.407 360.601C263.411 358.609 256.943 356.785 251.723 354.769Z" fill="white"/>
<path opacity="0.5" d="M229.116 336.948C215.52 324.36 198.312 308.22 198.312 308.22L188.304 306.78L187.104 307.452C187.104 307.452 215.352 332.448 221.364 335.232C223.796 336.35 226.439 336.935 229.116 336.948Z" fill="white"/>
<path opacity="0.5" d="M243.359 349.98L242.279 349.021C242.831 349.933 243.143 350.508 243.143 350.508L243.359 349.98Z" fill="white"/>
</g>
<path d="M164.087 303.276C168.575 311.777 174.159 319.652 180.695 326.7C196.547 343.872 242.339 388.788 246.695 391.872C251.051 394.956 249.779 403.752 246.695 412.56C243.611 421.368 232.163 434.16 232.607 448.224C233.051 462.288 237.407 483.888 237.011 488.292C236.615 492.696 225.599 507.672 225.599 507.672H339.191C339.191 507.672 325.031 489.672 325.031 483.516C325.031 477.36 344.471 398.484 345.347 392.76C346.223 387.036 342.707 383.076 335.663 382.632C328.619 382.188 301.763 376.464 300.443 372.06C299.123 367.656 307.487 350.928 307.487 350.928L281.087 352.248C281.087 352.248 279.767 363.696 278.003 365.904C276.239 368.112 273.599 363.696 267.431 360.624C261.263 357.552 249.431 354.9 244.979 351.372C240.527 347.844 198.311 308.172 198.311 308.172M159.131 290.616C159.126 290.7 159.126 290.784 159.131 290.868C159.126 290.784 159.126 290.7 159.131 290.616V290.616ZM164.087 303.288C162.066 299.587 160.456 295.676 159.287 291.624C160.451 295.678 162.061 299.59 164.087 303.288V303.288ZM159.155 290.94C159.155 291.012 159.155 291.096 159.155 291.204C159.179 291.096 159.167 291.012 159.155 290.94V290.94ZM159.215 291.276C159.23 291.394 159.254 291.51 159.287 291.624C159.254 291.51 159.23 291.394 159.215 291.276Z" stroke="#263238" stroke-linecap="round" stroke-linejoin="round"/>
<path d="M198.31 308.22C198.31 308.22 184.246 308.484 176.398 302.016" stroke="#263238" stroke-linecap="round" stroke-linejoin="round"/>
<path d="M300.456 372.06C299.136 367.668 307.5 350.928 307.5 350.928L281.1 352.248C281.1 352.248 279.78 363.696 278.016 365.904C276.252 368.112 273.612 363.696 267.444 360.624C266.976 360.384 266.46 360.156 265.932 359.928L264.336 385.02C264.336 385.02 266.652 409.32 294.42 404.7C305.664 402.828 317.664 392.796 328.02 381.516C317.364 379.56 301.464 375.432 300.456 372.06Z" fill="white"/>
<path d="M299.712 354.252C299.712 354.252 298.116 363.204 296.832 373.104C295.548 383.004 294.6 390.372 294.6 390.372L300.456 372.06L307.056 352.656C307.056 352.656 300.672 352.656 299.712 354.252Z" fill="#FF9900"/>
<path opacity="0.5" d="M299.712 354.252C299.712 354.252 298.116 363.204 296.832 373.104C295.548 383.004 294.6 390.372 294.6 390.372L300.456 372.06L307.056 352.656C307.056 352.656 300.672 352.656 299.712 354.252Z" fill="white"/>
<path d="M300.456 372.06C299.136 367.668 307.5 350.928 307.5 350.928L281.1 352.248C281.1 352.248 279.78 363.696 278.016 365.904C276.252 368.112 273.612 363.696 267.444 360.624C266.976 360.384 266.46 360.156 265.932 359.928L264.336 385.02C264.336 385.02 266.652 409.32 294.42 404.7C305.664 402.828 317.664 392.796 328.02 381.516C317.364 379.56 301.464 375.432 300.456 372.06Z" stroke="#263238" stroke-linecap="round" stroke-linejoin="round"/>
<path d="M278.003 365.904C276.239 368.1 273.599 363.696 267.431 360.624C263.543 358.668 257.351 356.892 252.227 354.972C250.775 351.528 248.855 347.04 247.619 344.328C245.423 339.528 241.895 342.564 241.895 342.564C240.054 340.471 238.567 338.092 237.491 335.52C235.295 330.72 231.767 331.116 226.931 330.24C222.095 329.364 211.955 320.112 211.955 320.112C211.955 320.112 207.215 316.512 205.259 314.724C202.979 319.212 197.519 327.108 185.711 332.04C204.539 351.708 242.735 389.076 246.743 391.884C251.147 394.956 249.827 403.764 246.743 412.572C243.659 421.38 232.211 434.172 232.655 448.236C233.099 462.3 237.455 483.9 237.059 488.304C236.663 492.228 227.879 504.528 225.971 507.168L230.447 507.672H253.751C253.619 495.864 253.631 447.672 261.707 428.472C270.959 406.404 278.003 365.904 278.003 365.904Z" fill="#FF9900"/>
<path opacity="0.16" d="M267.431 360.624C263.543 358.668 257.351 356.892 252.227 354.972C250.775 351.528 248.855 347.04 247.619 344.328C245.423 339.528 241.895 342.564 241.895 342.564C240.054 340.471 238.567 338.092 237.491 335.52C235.295 330.72 231.767 331.116 226.931 330.24C222.095 329.364 211.955 320.112 211.955 320.112C211.955 320.112 207.215 316.512 205.259 314.724C204.283 316.63 203.121 318.435 201.791 320.112C209.663 326.772 218.351 333.828 221.387 335.232C227.387 338.004 228.791 335.688 233.387 338.472C237.983 341.256 243.107 350.472 243.107 350.472C243.107 350.472 245.891 343.056 248.207 348.156C250.523 353.256 256.079 362.04 256.079 362.04C256.079 362.04 263.483 366.204 265.331 366.204C266.783 366.204 273.899 369.9 276.923 371.496C277.595 367.98 277.967 365.868 277.967 365.868C276.239 368.1 273.599 363.696 267.431 360.624Z" fill="black"/>
<path d="M278.003 365.904C276.239 368.1 273.599 363.696 267.431 360.624C263.543 358.668 257.351 356.892 252.227 354.972C250.775 351.528 248.855 347.04 247.619 344.328C245.423 339.528 241.895 342.564 241.895 342.564C240.054 340.471 238.567 338.092 237.491 335.52C235.295 330.72 231.767 331.116 226.931 330.24C222.095 329.364 211.955 320.112 211.955 320.112C211.955 320.112 207.215 316.512 205.259 314.724C202.979 319.212 197.519 327.108 185.711 332.04C204.539 351.708 242.735 389.076 246.743 391.884C251.147 394.956 249.827 403.764 246.743 412.572C243.659 421.38 232.211 434.172 232.655 448.236C233.099 462.3 237.455 483.9 237.059 488.304C236.663 492.228 227.879 504.528 225.971 507.168L230.447 507.672H253.751C253.619 495.864 253.631 447.672 261.707 428.472C270.959 406.404 278.003 365.904 278.003 365.904Z" stroke="#263238" stroke-linecap="round" stroke-linejoin="round"/>
<path d="M278.314 364.368C278.314 364.368 272.842 362.688 269.47 365.64C266.098 368.592 261.07 383.736 258.106 400.164C256.28 409.728 257.54 419.624 261.706 428.424C261.706 428.424 268.63 410.268 270.73 401.424C272.83 392.58 278.314 364.368 278.314 364.368Z" fill="#FF9900"/>
<path opacity="0.16" d="M267.814 367.044C267.814 367.044 271.774 366.084 273.406 366.636C274.781 367.226 276.065 368.005 277.222 368.952L278.314 364.368C276.676 363.531 274.818 363.225 272.998 363.492C270.274 364.044 267.814 367.044 267.814 367.044Z" fill="black"/>
<path d="M278.314 364.368C278.314 364.368 272.842 362.688 269.47 365.64C266.098 368.592 261.07 383.736 258.106 400.164C256.28 409.728 257.54 419.624 261.706 428.424C261.706 428.424 268.63 410.268 270.73 401.424C272.83 392.58 278.314 364.368 278.314 364.368Z" stroke="#263238" stroke-linecap="round" stroke-linejoin="round"/>
<path d="M241.462 365.808L248.506 394.428L232.654 358.32" stroke="#263238" stroke-linecap="round" stroke-linejoin="round"/>
<path d="M287.867 507.672H339.203C339.203 507.672 325.043 489.672 325.043 483.516C325.043 477.36 344.483 398.484 345.359 392.76C346.235 387.036 342.719 383.076 335.675 382.632C328.631 382.188 301.775 376.464 300.455 372.06C300.455 372.06 290.327 407.724 286.811 431.94C283.787 452.712 286.919 495.816 287.867 507.672Z" fill="#FF9900"/>
<path opacity="0.16" d="M335.674 382.632C329.902 382.272 310.834 378.36 303.406 374.544L306.106 380.784C310.998 383.379 316.259 385.209 321.706 386.208C330.646 387.804 338.962 387.492 344.398 395.484L344.662 395.88C344.998 394.344 345.226 393.264 345.298 392.76C346.246 387.036 342.718 383.076 335.674 382.632Z" fill="black"/>
<path d="M287.867 507.672H339.203C339.203 507.672 325.043 489.672 325.043 483.516C325.043 477.36 344.483 398.484 345.359 392.76C346.235 387.036 342.719 383.076 335.675 382.632C328.631 382.188 301.775 376.464 300.455 372.06C300.455 372.06 290.327 407.724 286.811 431.94C283.787 452.712 286.919 495.816 287.867 507.672Z" stroke="#263238" stroke-linecap="round" stroke-linejoin="round"/>
<path d="M300.455 372.06C300.455 372.06 286.871 415.26 286.811 431.94C286.811 431.94 306.107 408.576 308.627 392.16C311.147 375.744 300.455 372.06 300.455 372.06Z" fill="#FF9900"/>
<path opacity="0.16" d="M298.115 377.58C300.156 377.512 302.183 377.941 304.021 378.832C305.859 379.723 307.452 381.048 308.663 382.692C308.663 382.692 305.999 374.856 300.455 372.06L298.115 377.58Z" fill="black"/>
<path d="M300.455 372.06C300.455 372.06 286.871 415.26 286.811 431.94C286.811 431.94 306.107 408.576 308.627 392.16C311.147 375.744 300.455 372.06 300.455 372.06Z" stroke="#263238" stroke-linecap="round" stroke-linejoin="round"/>
<path d="M445.476 499.548C445.476 499.548 455.424 499.956 461.94 500.892C466.285 501.481 470.66 501.83 475.044 501.936C475.044 501.936 471.444 494.664 467.604 492.612C463.764 490.56 456.804 486.888 450.972 487.704C445.14 488.52 436.8 494.4 437.496 496.272C438.192 498.144 441.3 498.984 445.476 499.548Z" fill="white"/>
<path d="M445.476 499.548C445.476 499.548 455.424 499.956 461.94 500.892C466.285 501.481 470.66 501.83 475.044 501.936C475.044 501.936 471.444 494.664 467.604 492.612C463.764 490.56 456.804 486.888 450.972 487.704C445.14 488.52 436.8 494.4 437.496 496.272C438.192 498.144 441.3 498.984 445.476 499.548Z" fill="#FF9900"/>
<path opacity="0.5" d="M445.476 499.548C445.476 499.548 455.424 499.956 461.94 500.892C466.285 501.481 470.66 501.83 475.044 501.936C475.044 501.936 471.444 494.664 467.604 492.612C463.764 490.56 456.804 486.888 450.972 487.704C445.14 488.52 436.8 494.4 437.496 496.272C438.192 498.144 441.3 498.984 445.476 499.548Z" fill="white"/>
<path d="M445.476 499.548C445.476 499.548 455.424 499.956 461.94 500.892C466.285 501.481 470.66 501.83 475.044 501.936C475.044 501.936 471.444 494.664 467.604 492.612C463.764 490.56 456.804 486.888 450.972 487.704C445.14 488.52 436.8 494.4 437.496 496.272C438.192 498.144 441.3 498.984 445.476 499.548Z" stroke="#263238" stroke-linecap="round" stroke-linejoin="round"/>
<path d="M462 496.572C462 496.572 469.884 492.48 471.852 492.54C473.82 492.6 486.9 501.444 486.252 502.86C485.812 503.517 485.177 504.018 484.436 504.294C483.695 504.57 482.886 504.605 482.124 504.396C480.672 503.712 471.864 499.968 471.864 499.968L466.104 501.324L462 496.572Z" fill="white"/>
<path d="M462 496.572C462 496.572 469.884 492.48 471.852 492.54C473.82 492.6 486.9 501.444 486.252 502.86C485.604 504.276 482.508 505.428 482.124 504.396C481.74 503.364 471.864 499.968 471.864 499.968L466.104 501.324L462 496.572Z" fill="#FF9900"/>
<path opacity="0.5" d="M462 496.572C462 496.572 469.884 492.48 471.852 492.54C473.82 492.6 486.9 501.444 486.252 502.86C485.604 504.276 482.508 505.428 482.124 504.396C481.74 503.364 471.864 499.968 471.864 499.968L466.104 501.324L462 496.572Z" fill="white"/>
<path d="M462 496.572C462 496.572 469.884 492.48 471.852 492.54C473.82 492.6 486.9 501.444 486.252 502.86C485.812 503.517 485.177 504.018 484.436 504.294C483.695 504.57 482.886 504.605 482.124 504.396C480.672 503.712 471.864 499.968 471.864 499.968L466.104 501.324L462 496.572Z" stroke="#263238" stroke-linecap="round" stroke-linejoin="round"/>
<path d="M456.371 489.84C456.371 489.84 466.883 489.504 468.971 490.56C471.059 491.616 480.491 507.792 479.075 508.968C477.659 510.144 473.747 509.796 473.867 508.488C473.987 507.18 465.179 498.516 465.179 498.516L458.327 497.016L456.371 489.84Z" fill="white"/>
<path d="M456.371 489.84C456.371 489.84 466.883 489.504 468.971 490.56C471.059 491.616 480.491 507.792 479.075 508.968C477.659 510.144 473.747 509.796 473.867 508.488C473.987 507.18 465.179 498.516 465.179 498.516L458.327 497.016L456.371 489.84Z" fill="#FF9900"/>
<path opacity="0.5" d="M456.371 489.84C456.371 489.84 466.883 489.504 468.971 490.56C471.059 491.616 480.491 507.792 479.075 508.968C477.659 510.144 473.747 509.796 473.867 508.488C473.987 507.18 465.179 498.516 465.179 498.516L458.327 497.016L456.371 489.84Z" fill="white"/>
<path d="M456.371 489.84C456.371 489.84 466.883 489.504 468.971 490.56C471.059 491.616 480.491 507.792 479.075 508.968C477.659 510.144 473.747 509.796 473.867 508.488C473.987 507.18 465.179 498.516 465.179 498.516L458.327 497.016L456.371 489.84Z" stroke="#263238" stroke-linecap="round" stroke-linejoin="round"/>
<path d="M450.143 487.668C450.143 487.668 460.787 487.32 462.899 488.4C465.011 489.48 474.563 505.836 473.123 507.036C471.683 508.236 467.747 507.864 467.867 506.544C467.987 505.224 459.071 496.452 459.071 496.452L452.135 494.928L450.143 487.668Z" fill="white"/>
<path d="M450.143 487.668C450.143 487.668 460.787 487.32 462.899 488.4C465.011 489.48 474.563 505.836 473.123 507.036C471.683 508.236 467.747 507.864 467.867 506.544C467.987 505.224 459.071 496.452 459.071 496.452L452.135 494.928L450.143 487.668Z" fill="#FF9900"/>
<path opacity="0.5" d="M450.143 487.668C450.143 487.668 460.787 487.32 462.899 488.4C465.011 489.48 474.563 505.836 473.123 507.036C471.683 508.236 467.747 507.864 467.867 506.544C467.987 505.224 459.071 496.452 459.071 496.452L452.135 494.928L450.143 487.668Z" fill="white"/>
<path d="M450.143 487.668C450.143 487.668 460.787 487.32 462.899 488.4C465.011 489.48 474.563 505.836 473.123 507.036C471.683 508.236 467.747 507.864 467.867 506.544C467.987 505.224 459.071 496.452 459.071 496.452L452.135 494.928L450.143 487.668Z" stroke="#263238" stroke-linecap="round" stroke-linejoin="round"/>
<path d="M329.123 426.684C336.827 438.552 352.295 468.624 356.807 472.008C363.851 477.288 410.939 490.104 415.475 493.608C420.011 497.112 419.699 500.628 423.995 501.912C428.291 503.196 444.395 506.88 450.539 507.456C456.683 508.032 453.935 504.228 453.935 504.228L443.459 497.028L452.591 494.772C452.591 494.772 461.747 505.788 463.463 506.388C465.179 506.988 468.203 506.388 468.011 505.032C467.675 502.86 457.907 485.088 454.439 484.332C450.971 483.576 429.923 486.492 429.923 486.492C429.923 486.492 385.775 456.72 384.983 455.664C384.983 455.664 382.343 448.176 380.183 445.092C378.023 442.008 376.655 442.896 376.655 442.896C376.655 442.896 377.543 438.924 376.223 437.604L369.179 430.56L368.927 430.896C367.727 428.496 366.527 425.76 365.207 422.64C361.523 413.964 348.479 389.616 346.283 386.1C344.639 383.472 330.863 381.588 323.879 380.796" fill="#FF9900"/>
<path opacity="0.16" d="M359.796 427.44C365.556 432.552 363.636 432.552 362.352 437.04C361.068 441.528 363.312 435.444 368.748 435.768C374.184 436.092 372.588 443.112 371.94 444.396C371.292 445.68 378.66 447.276 377.376 450.144C376.092 453.012 368.748 457.176 364.596 461.34C360.444 465.504 375.456 454.62 380.568 454.308C382.128 454.2 383.412 454.404 384.492 454.38C383.359 451.169 381.903 448.082 380.148 445.164C377.94 442.08 376.62 442.968 376.62 442.968C376.62 442.968 377.508 438.996 376.188 437.676L369.144 430.632L368.892 430.968C367.692 428.568 366.492 425.832 365.172 422.712C361.488 414.036 348.444 389.688 346.248 386.172C344.604 383.544 330.828 381.66 323.844 380.868L324.48 386.424L324.636 386.544C324.636 386.544 333.264 388.14 336.144 388.464C339.024 388.788 342.54 391.332 342.216 393.264C341.892 395.196 333.588 403.812 336.144 404.46C338.7 405.108 341.58 398.064 344.46 399.024C347.34 399.984 354 422.328 359.796 427.44Z" fill="black"/>
<path d="M329.123 426.684C336.827 438.552 352.295 468.624 356.807 472.008C363.851 477.288 410.939 490.104 415.475 493.608C420.011 497.112 419.699 500.628 423.995 501.912C428.291 503.196 444.395 506.88 450.539 507.456C456.683 508.032 453.935 504.228 453.935 504.228L443.459 497.028L452.591 494.772C452.591 494.772 461.747 505.788 463.463 506.388C465.179 506.988 468.203 506.388 468.011 505.032C467.675 502.86 457.907 485.088 454.439 484.332C450.971 483.576 429.923 486.492 429.923 486.492C429.923 486.492 385.775 456.72 384.983 455.664C384.983 455.664 382.343 448.176 380.183 445.092C378.023 442.008 376.655 442.896 376.655 442.896C376.655 442.896 377.543 438.924 376.223 437.604L369.179 430.56L368.927 430.896C367.727 428.496 366.527 425.76 365.207 422.64C361.523 413.964 348.479 389.616 346.283 386.1C344.639 383.472 330.863 381.588 323.879 380.796" stroke="#263238" stroke-linecap="round" stroke-linejoin="round"/>
<path d="M329.244 410.4C328.92 411.48 328.644 412.56 328.428 413.664" stroke="#263238" stroke-linecap="round" stroke-linejoin="round"/>
<path d="M340.907 390.54C337.136 394.838 333.956 399.62 331.451 404.76" stroke="#263238" stroke-linecap="round" stroke-linejoin="round"/>
<path d="M358.535 458.676C361.775 453.876 366.935 447.792 372.623 446.052" stroke="#263238" stroke-linecap="round" stroke-linejoin="round"/>
<path d="M354.947 464.58C354.947 464.58 355.523 463.452 356.555 461.748" stroke="#263238" stroke-linecap="round" stroke-linejoin="round"/>
<path d="M354.947 456.996C354.947 456.996 360.839 442.26 366.731 438.468C372.623 434.676 369.251 442.26 369.251 442.26" stroke="#263238" stroke-linecap="round" stroke-linejoin="round"/>
<path d="M415.476 493.62C420.024 497.136 419.7 500.64 423.996 501.924C428.292 503.208 444.396 506.892 450.54 507.468C456.684 508.044 453.936 504.24 453.936 504.24L443.46 497.04L452.592 494.784C452.592 494.784 461.748 505.8 463.464 506.4C465.18 507 468.444 507.216 468.012 505.044C467.172 500.844 457.908 485.1 454.44 484.344C450.972 483.588 429.924 486.504 429.924 486.504C429.924 486.504 389.712 458.904 385.308 455.916C368.232 457.56 360.108 466.5 356.688 471.864L356.808 471.96C363.852 477.288 410.94 490.104 415.476 493.62Z" fill="white"/>
<path d="M468 505.092C465.816 499.752 457.896 485.148 454.428 484.392C450.96 483.636 429.912 486.552 429.912 486.552C429.912 486.552 389.7 458.952 385.296 455.964C380.814 456.354 376.416 457.418 372.252 459.12C378.6 462.72 420.912 486.72 426.252 487.788C431.916 488.988 450.816 485.88 454.14 488.112C456.252 489.528 462.54 499.5 466.788 506.58C468 506.4 468.444 506.172 468 505.092Z" fill="#FF9900"/>
<path opacity="0.5" d="M468 505.092C464.592 497.448 457.896 485.148 454.428 484.392C450.96 483.636 429.912 486.552 429.912 486.552C429.912 486.552 389.7 458.952 385.296 455.964C380.814 456.354 376.416 457.418 372.252 459.12C378.6 462.72 420.912 486.72 426.252 487.788C431.916 488.988 450.816 485.88 454.14 488.112C456.252 489.528 462.54 499.5 466.788 506.58C468 506.4 468.48 506.16 468 505.092Z" fill="white"/>
<path d="M415.476 493.62C420.024 497.136 419.7 500.64 423.996 501.924C428.292 503.208 444.396 506.892 450.54 507.468C456.684 508.044 453.936 504.24 453.936 504.24L443.46 497.04L452.592 494.784C452.592 494.784 461.748 505.8 463.464 506.4C465.18 507 468.444 507.216 468.012 505.044C467.172 500.844 457.908 485.1 454.44 484.344C450.972 483.588 429.924 486.504 429.924 486.504C429.924 486.504 389.712 458.904 385.308 455.916C368.232 457.56 360.108 466.5 356.688 471.864L356.808 471.96C363.852 477.288 410.94 490.104 415.476 493.62Z" stroke="#263238" stroke-linecap="round" stroke-linejoin="round"/>
<path d="M309.42 284.076L273.276 299.16C272.838 305.512 271.265 311.735 268.632 317.532C264.36 326.568 266.856 343.668 270.96 352.896C275.064 362.124 293.148 358.512 299.76 357.36C304.244 356.507 308.637 355.225 312.876 353.532C314.806 354.276 316.894 354.517 318.943 354.231C320.992 353.946 322.935 353.143 324.588 351.9C324.588 351.9 305.244 297.6 309.42 284.076Z" fill="white"/>
<path d="M309.42 284.076L273.276 299.16C272.838 305.512 271.265 311.735 268.632 317.532C264.36 326.568 266.856 343.668 270.96 352.896C271.647 354.38 272.752 355.631 274.14 356.496V355.8C274.14 355.8 267.432 339.18 268.704 329.592C269.976 320.004 275.424 315.192 276.06 309.132C276.696 303.072 276.372 300.192 288.528 295.716C300.684 291.24 305.784 287.088 307.056 291.552C308.328 296.016 313.452 325.44 316.968 332.472C320.484 339.504 320.16 346.872 314.736 350.052C309.254 353.343 303.38 355.931 297.252 357.756L299.808 357.312C304.292 356.459 308.685 355.177 312.924 353.484C314.854 354.228 316.942 354.469 318.991 354.183C321.04 353.898 322.983 353.095 324.636 351.852C324.636 351.852 305.244 297.6 309.42 284.076Z" fill="#FF9900"/>
<path opacity="0.5" d="M309.42 284.076L273.276 299.16C272.838 305.512 271.265 311.735 268.632 317.532C264.36 326.568 266.856 343.668 270.96 352.896C271.647 354.38 272.752 355.631 274.14 356.496V355.8C274.14 355.8 267.432 339.18 268.704 329.592C269.976 320.004 275.424 315.192 276.06 309.132C276.696 303.072 276.372 300.192 288.528 295.716C300.684 291.24 305.784 287.088 307.056 291.552C308.328 296.016 313.452 325.44 316.968 332.472C320.484 339.504 320.16 346.872 314.736 350.052C309.254 353.343 303.38 355.931 297.252 357.756L299.808 357.312C304.292 356.459 308.685 355.177 312.924 353.484C314.854 354.228 316.942 354.469 318.991 354.183C321.04 353.898 322.983 353.095 324.636 351.852C324.636 351.852 305.244 297.6 309.42 284.076Z" fill="white"/>
<path d="M309.42 284.076L273.276 299.16C272.838 305.512 271.265 311.735 268.632 317.532C264.36 326.568 266.856 343.668 270.96 352.896C275.064 362.124 293.148 358.512 299.76 357.36C304.244 356.507 308.637 355.225 312.876 353.532C314.806 354.276 316.894 354.517 318.943 354.231C320.992 353.946 322.935 353.143 324.588 351.9C324.588 351.9 305.244 297.6 309.42 284.076Z" stroke="#263238" stroke-linecap="round" stroke-linejoin="round"/>
<path d="M291.155 307.728C291.253 309.853 290.989 311.979 290.375 314.016C289.415 316.416 280.355 325.848 280.631 326.868C280.907 327.888 281.723 331.164 283.331 331.476" stroke="#263238" stroke-linecap="round" stroke-linejoin="round"/>
<path d="M301.199 316.164C302.459 313.644 306.599 316.104 306.539 321.78" stroke="#263238" stroke-linecap="round" stroke-linejoin="round"/>
<path d="M280.68 308.748C280.68 308.748 284.208 307.2 287.364 312.912" stroke="#263238" stroke-linecap="round" stroke-linejoin="round"/>
<path d="M296.184 324.48C300.26 324.685 304.137 326.311 307.14 329.076" stroke="#263238" stroke-width="0.5" stroke-linecap="round" stroke-linejoin="round"/>
<path d="M276.42 316.98C278.528 317.261 280.587 317.831 282.54 318.672" stroke="#263238" stroke-width="0.5" stroke-linecap="round" stroke-linejoin="round"/>
<path d="M290.76 302.4C289.828 301.907 288.794 301.638 287.741 301.613C286.687 301.588 285.642 301.808 284.688 302.256C281.46 303.804 279.48 305.508 279.696 303.528C279.912 301.548 283.704 299.364 284.844 299.076C285.984 298.788 291.084 297.996 290.76 302.4Z" fill="#263238"/>
<path d="M299.807 297.924C303.171 300.646 305.843 304.125 307.607 308.076C310.007 314.076 311.903 307.524 310.007 303.6C308.111 299.676 302.627 295.5 299.807 297.924Z" fill="#263238"/>
<path d="M325.114 362.16C325.114 364.956 323.53 367.224 321.586 367.224C319.642 367.224 318.07 364.956 318.07 362.16C318.07 359.364 319.642 352.248 321.586 352.248C323.53 352.248 325.114 359.364 325.114 362.16Z" fill="#FF9900" stroke="#263238" stroke-linecap="round" stroke-linejoin="round"/>
<path d="M301.511 315.072C301.373 315.439 301.265 315.816 301.187 316.2C300.839 317.976 300.491 321.684 301.187 321.84C301.883 321.996 303.587 318.528 303.887 316.752C303.955 316.404 303.995 316.051 304.007 315.696C303.188 315.439 302.355 315.231 301.511 315.072Z" fill="#263238"/>
<path d="M281.038 308.4C280.932 308.714 280.847 309.035 280.786 309.36C280.426 311.136 280.438 315.036 281.194 315.18C281.95 315.324 283.186 311.676 283.534 309.9C283.621 309.469 283.669 309.032 283.678 308.592C282.819 308.356 281.922 308.291 281.038 308.4Z" fill="#263238"/>
<path d="M301.199 316.224L302.399 313.992C304.302 314.363 306.025 315.36 307.295 316.824" stroke="#263238" stroke-width="0.75" stroke-linecap="round" stroke-linejoin="round"/>
<path d="M281.039 308.4L282.239 306.996C282.239 306.996 282.755 306.744 285.587 308.028" stroke="#263238" stroke-width="0.75" stroke-linecap="round" stroke-linejoin="round"/>
<path d="M276.49 340.944C276.49 340.944 278.506 337.236 281.206 337.236C283.906 337.236 285.922 343.296 285.922 343.296" stroke="#263238" stroke-linecap="round" stroke-linejoin="round"/>
<path d="M189.6 500.856C186.991 500.726 184.428 500.116 182.04 499.056C181.707 498.933 181.403 498.743 181.145 498.499C180.888 498.254 180.683 497.96 180.543 497.634C180.403 497.308 180.331 496.956 180.331 496.601C180.332 496.246 180.404 495.895 180.544 495.569C180.684 495.243 180.889 494.949 181.147 494.705C181.405 494.46 181.709 494.271 182.042 494.148C182.375 494.025 182.73 493.972 183.084 493.99C183.439 494.009 183.786 494.099 184.104 494.256C186.504 495.276 189.612 495.912 190.44 495.552C191.964 493.848 194.304 483.552 191.28 478.584C190.596 477.48 189.96 477.276 189.54 477.228C187.824 476.988 185.28 478.752 184.38 479.628C184.13 479.865 183.835 480.049 183.513 480.172C183.191 480.294 182.848 480.352 182.504 480.342C182.159 480.332 181.82 480.254 181.506 480.113C181.192 479.972 180.908 479.771 180.672 479.52C180.436 479.27 180.251 478.975 180.129 478.653C180.006 478.331 179.948 477.988 179.958 477.644C179.968 477.299 180.046 476.96 180.187 476.646C180.328 476.332 180.53 476.049 180.78 475.812C181.248 475.356 185.58 471.456 190.2 472.08C191.346 472.247 192.438 472.677 193.391 473.334C194.344 473.992 195.133 474.86 195.696 475.872C200.148 483.132 197.1 496.944 193.68 499.68C192.492 500.521 191.054 500.935 189.6 500.856Z" fill="white"/>
<path d="M193.116 477.792C192.801 477.047 192.308 476.39 191.68 475.88C191.053 475.369 190.309 475.02 189.516 474.864C186.516 474.384 183.696 477.396 183.384 477.732C183.097 478.078 182.919 478.501 182.875 478.948C182.83 479.394 182.919 479.845 183.132 480.24C183.604 480.145 184.04 479.921 184.392 479.592C185.292 478.752 187.836 476.988 189.552 477.192C189.972 477.192 190.608 477.444 191.292 478.548C194.316 483.468 191.976 493.812 190.452 495.516C189.624 495.876 186.528 495.24 184.116 494.22C183.819 494.095 183.501 494.026 183.18 494.016C183.201 494.345 183.305 494.663 183.481 494.942C183.657 495.221 183.9 495.451 184.188 495.612C185.705 496.423 187.379 496.897 189.096 497.004C190.075 497.051 191.035 496.716 191.772 496.068C194.028 493.992 196.019 483.372 193.116 477.792Z" fill="#FF9900"/>
<path opacity="0.5" d="M193.116 477.792C192.801 477.047 192.308 476.39 191.68 475.88C191.053 475.369 190.309 475.02 189.516 474.864C186.516 474.384 183.696 477.396 183.384 477.732C183.097 478.078 182.919 478.501 182.875 478.948C182.83 479.394 182.919 479.845 183.132 480.24C183.604 480.145 184.04 479.921 184.392 479.592C185.292 478.752 187.836 476.988 189.552 477.192C189.972 477.192 190.608 477.444 191.292 478.548C194.316 483.468 191.976 493.812 190.452 495.516C189.624 495.876 186.528 495.24 184.116 494.22C183.819 494.095 183.501 494.026 183.18 494.016C183.201 494.345 183.305 494.663 183.481 494.942C183.657 495.221 183.9 495.451 184.188 495.612C185.705 496.423 187.379 496.897 189.096 497.004C190.075 497.051 191.035 496.716 191.772 496.068C194.028 493.992 196.019 483.372 193.116 477.792Z" fill="white"/>
<path d="M189.6 500.856C186.991 500.726 184.428 500.116 182.04 499.056C181.707 498.933 181.403 498.743 181.145 498.499C180.888 498.254 180.683 497.96 180.543 497.634C180.403 497.308 180.331 496.956 180.331 496.601C180.332 496.246 180.404 495.895 180.544 495.569C180.684 495.243 180.889 494.949 181.147 494.705C181.405 494.46 181.709 494.271 182.042 494.148C182.375 494.025 182.73 493.972 183.084 493.99C183.439 494.009 183.786 494.099 184.104 494.256C186.504 495.276 189.612 495.912 190.44 495.552C191.964 493.848 194.304 483.552 191.28 478.584C190.596 477.48 189.96 477.276 189.54 477.228C187.824 476.988 185.28 478.752 184.38 479.628C184.13 479.865 183.835 480.049 183.513 480.172C183.191 480.294 182.848 480.352 182.504 480.342C182.159 480.332 181.82 480.254 181.506 480.113C181.192 479.972 180.908 479.771 180.672 479.52C180.436 479.27 180.251 478.975 180.129 478.653C180.006 478.331 179.948 477.988 179.958 477.644C179.968 477.299 180.046 476.96 180.187 476.646C180.328 476.332 180.53 476.049 180.78 475.812C181.248 475.356 185.58 471.456 190.2 472.08C191.346 472.247 192.438 472.677 193.391 473.334C194.344 473.992 195.133 474.86 195.696 475.872C200.148 483.132 197.1 496.944 193.68 499.68C192.492 500.521 191.054 500.935 189.6 500.856V500.856Z" stroke="#263238" stroke-linecap="round" stroke-linejoin="round"/>
<path d="M185.016 469.896H156.156V508.2H185.016V469.896Z" fill="white"/>
<path d="M167.976 469.896H156.156V508.2H167.976V469.896Z" fill="#FF9900"/>
<path opacity="0.5" d="M167.976 469.896H156.156V508.2H167.976V469.896Z" fill="white"/>
<path d="M185.016 469.896H156.156V508.2H185.016V469.896Z" stroke="#263238" stroke-linecap="round" stroke-linejoin="round"/>
<path d="M343.609 507.672H220.321L216.301 439.896C216.19 439.239 216.222 438.565 216.397 437.922C216.571 437.279 216.883 436.681 217.311 436.17C217.739 435.659 218.272 435.247 218.875 434.962C219.477 434.677 220.134 434.526 220.801 434.52H343.081C343.751 434.519 344.414 434.665 345.022 434.947C345.631 435.229 346.17 435.64 346.603 436.152C347.036 436.664 347.352 437.264 347.53 437.911C347.707 438.557 347.741 439.235 347.629 439.896L343.609 507.672Z" fill="#263238" stroke="#263238" stroke-linecap="round" stroke-linejoin="round"/>
<path d="M226.393 436.14H342.193C342.847 436.133 343.494 436.27 344.09 436.539C344.686 436.809 345.216 437.206 345.642 437.702C346.069 438.198 346.382 438.782 346.559 439.412C346.736 440.041 346.774 440.702 346.669 441.348" stroke="white" stroke-linecap="round" stroke-linejoin="round"/>
<path d="M217.201 440.28C217.298 439.146 217.818 438.09 218.659 437.323C219.5 436.555 220.599 436.133 221.737 436.14" stroke="white" stroke-linecap="round" stroke-linejoin="round"/>
<path d="M344.125 501.072H219.805V507.672H344.125V501.072Z" fill="white" stroke="#263238" stroke-linecap="round" stroke-linejoin="round"/>
<path d="M281.521 476.64C286.385 476.64 290.329 474.276 290.329 471.36C290.329 468.444 286.385 466.08 281.521 466.08C276.656 466.08 272.713 468.444 272.713 471.36C272.713 474.276 276.656 476.64 281.521 476.64Z" fill="white" stroke="#263238" stroke-linecap="round" stroke-linejoin="round"/>
<path d="M531.636 506.892H68.6035V518.136H531.636V506.892Z" fill="#263238"/>
<path d="M411.577 90H188.821C181.312 90 175.225 96.0871 175.225 103.596V231.408C175.225 238.917 181.312 245.004 188.821 245.004H411.577C419.085 245.004 425.173 238.917 425.173 231.408V103.596C425.173 96.0871 419.085 90 411.577 90Z" fill="#FF9900"/>
<path d="M306.077 179.076C326.283 175.829 340.031 156.816 336.783 136.61C333.536 116.404 314.523 102.656 294.317 105.903C274.111 109.151 260.363 128.164 263.61 148.37C266.858 168.576 285.871 182.324 306.077 179.076Z" fill="#263238"/>
<path d="M299.916 149.34L287.568 165.192C287.148 165.852 286.571 166.397 285.888 166.778C285.205 167.159 284.438 167.365 283.656 167.376C282.583 167.39 281.548 166.981 280.776 166.236C280.383 165.876 280.073 165.435 279.866 164.945C279.659 164.454 279.56 163.924 279.576 163.392C279.615 162.199 280.035 161.051 280.776 160.116L294.852 142.704L281.652 125.28C281.039 124.462 280.702 123.47 280.692 122.448C280.689 121.838 280.812 121.235 281.054 120.675C281.295 120.115 281.65 119.612 282.096 119.196C282.515 118.759 283.018 118.411 283.574 118.174C284.131 117.937 284.731 117.815 285.336 117.816C286.111 117.828 286.871 118.035 287.546 118.416C288.221 118.798 288.789 119.342 289.2 120L301.128 135.708L313.128 120.264C313.557 119.543 314.157 118.94 314.875 118.506C315.593 118.073 316.406 117.824 317.244 117.78C317.764 117.779 318.278 117.884 318.755 118.091C319.232 118.297 319.661 118.6 320.016 118.98C320.394 119.336 320.695 119.765 320.902 120.242C321.108 120.719 321.215 121.232 321.216 121.752C321.203 122.681 320.882 123.58 320.304 124.308L306.18 142.38L319.824 160.38C320.469 161.184 320.828 162.181 320.844 163.212C320.848 163.808 320.722 164.398 320.476 164.941C320.229 165.484 319.867 165.966 319.416 166.356C318.535 167.202 317.361 167.675 316.14 167.676C315.361 167.666 314.597 167.461 313.917 167.08C313.238 166.698 312.665 166.152 312.252 165.492L299.916 149.34Z" fill="white"/>
<path d="M370.8 218.16H229.548C226.684 218.16 223.937 217.022 221.911 214.997C219.886 212.971 218.748 210.224 218.748 207.36C218.748 204.496 219.886 201.749 221.911 199.723C223.937 197.698 226.684 196.56 229.548 196.56H370.8C373.664 196.56 376.411 197.698 378.437 199.723C380.462 201.749 381.6 204.496 381.6 207.36C381.6 210.224 380.462 212.971 378.437 214.997C376.411 217.022 373.664 218.16 370.8 218.16Z" fill="white"/>
<path d="M248.904 210.84C248.81 210.84 248.717 210.821 248.63 210.784C248.544 210.746 248.465 210.692 248.4 210.624C248.329 210.553 248.274 210.469 248.237 210.376C248.199 210.283 248.182 210.184 248.184 210.084C248.184 209.915 248.23 209.749 248.316 209.604L249.396 207.924H247.188C247.086 207.929 246.984 207.913 246.889 207.875C246.794 207.838 246.708 207.781 246.636 207.708C246.513 207.564 246.445 207.381 246.445 207.192C246.445 207.003 246.513 206.819 246.636 206.676C246.708 206.603 246.794 206.546 246.889 206.508C246.984 206.471 247.086 206.455 247.188 206.46L249.36 206.52L248.4 204.96C248.304 204.8 248.251 204.618 248.244 204.432C248.242 204.332 248.259 204.232 248.297 204.139C248.334 204.047 248.389 203.962 248.46 203.892C248.528 203.823 248.608 203.769 248.697 203.732C248.785 203.695 248.88 203.676 248.976 203.676C249.111 203.674 249.243 203.712 249.356 203.784C249.469 203.857 249.558 203.961 249.612 204.084L250.668 205.968L251.676 204.168C251.74 204.028 251.841 203.908 251.968 203.821C252.095 203.734 252.243 203.684 252.396 203.676C252.491 203.676 252.584 203.695 252.671 203.732C252.757 203.769 252.835 203.824 252.9 203.892C252.971 203.958 253.026 204.038 253.064 204.127C253.101 204.216 253.119 204.311 253.116 204.408C253.115 204.578 253.065 204.745 252.972 204.888L251.916 206.58L254.112 206.52C254.215 206.514 254.317 206.53 254.412 206.567C254.507 206.605 254.594 206.662 254.664 206.736C254.788 206.879 254.856 207.063 254.856 207.252C254.856 207.441 254.788 207.624 254.664 207.768C254.594 207.842 254.507 207.899 254.412 207.936C254.317 207.974 254.215 207.99 254.112 207.984H251.892L252.876 209.52C252.987 209.705 253.049 209.916 253.056 210.132C253.06 210.229 253.044 210.326 253.009 210.417C252.973 210.508 252.92 210.59 252.852 210.66C252.789 210.727 252.713 210.781 252.629 210.818C252.544 210.855 252.453 210.875 252.36 210.876C252.212 210.872 252.068 210.826 251.944 210.743C251.821 210.66 251.724 210.544 251.664 210.408L250.668 208.644L249.672 210.408C249.6 210.547 249.489 210.662 249.353 210.738C249.217 210.815 249.061 210.85 248.904 210.84Z" fill="black"/>
<path d="M259.92 210.84C259.826 210.84 259.733 210.821 259.646 210.784C259.559 210.746 259.481 210.692 259.416 210.624C259.345 210.553 259.289 210.469 259.252 210.376C259.215 210.283 259.197 210.184 259.2 210.084C259.2 209.915 259.246 209.749 259.332 209.604L260.412 207.924H258.204C258.102 207.929 258 207.913 257.905 207.875C257.81 207.838 257.724 207.781 257.652 207.708C257.529 207.564 257.461 207.381 257.461 207.192C257.461 207.002 257.529 206.819 257.652 206.676C257.724 206.603 257.81 206.546 257.905 206.508C258 206.471 258.102 206.455 258.204 206.46L260.376 206.52L259.356 204.9C259.26 204.74 259.206 204.558 259.2 204.372C259.197 204.272 259.215 204.172 259.252 204.079C259.289 203.987 259.345 203.902 259.416 203.832C259.483 203.763 259.564 203.709 259.652 203.672C259.741 203.635 259.836 203.616 259.932 203.616C260.066 203.614 260.198 203.651 260.312 203.724C260.425 203.797 260.514 203.901 260.568 204.024L261.624 205.908L262.632 204.108C262.696 203.968 262.796 203.848 262.923 203.761C263.05 203.674 263.199 203.624 263.352 203.616C263.446 203.616 263.54 203.635 263.626 203.672C263.713 203.709 263.791 203.764 263.856 203.832C263.926 203.898 263.982 203.978 264.019 204.067C264.056 204.156 264.074 204.251 264.072 204.348C264.07 204.518 264.021 204.685 263.928 204.828L262.872 206.52L265.068 206.46C265.17 206.454 265.272 206.47 265.368 206.507C265.463 206.545 265.549 206.602 265.62 206.676C265.743 206.819 265.811 207.002 265.811 207.192C265.811 207.381 265.743 207.564 265.62 207.708C265.549 207.782 265.463 207.839 265.368 207.876C265.272 207.914 265.17 207.93 265.068 207.924H262.848L263.832 209.46C263.943 209.645 264.005 209.856 264.012 210.072C264.016 210.169 263.999 210.266 263.964 210.357C263.929 210.447 263.876 210.53 263.808 210.6C263.745 210.667 263.669 210.721 263.584 210.758C263.5 210.795 263.408 210.815 263.316 210.816C263.167 210.814 263.022 210.768 262.899 210.685C262.775 210.602 262.678 210.485 262.62 210.348L261.624 208.584L260.628 210.348C260.569 210.489 260.471 210.61 260.346 210.697C260.22 210.784 260.073 210.833 259.92 210.84Z" fill="black"/>
<path d="M270.936 210.84C270.841 210.84 270.748 210.821 270.662 210.784C270.575 210.746 270.497 210.692 270.432 210.624C270.361 210.553 270.305 210.469 270.268 210.376C270.231 210.283 270.213 210.184 270.216 210.084C270.216 209.915 270.261 209.749 270.348 209.604L271.428 207.924H269.22C269.118 207.929 269.016 207.913 268.92 207.875C268.825 207.838 268.739 207.781 268.668 207.708C268.544 207.564 268.477 207.381 268.477 207.192C268.477 207.002 268.544 206.819 268.668 206.676C268.739 206.603 268.825 206.546 268.92 206.508C269.016 206.471 269.118 206.455 269.22 206.46L271.392 206.52L270.372 204.9C270.275 204.74 270.222 204.558 270.216 204.372C270.213 204.272 270.231 204.172 270.268 204.079C270.305 203.987 270.361 203.902 270.432 203.832C270.499 203.763 270.579 203.709 270.668 203.672C270.757 203.635 270.852 203.616 270.948 203.616C271.082 203.614 271.214 203.651 271.327 203.724C271.44 203.797 271.53 203.901 271.584 204.024L272.64 205.908L273.648 204.108C273.711 203.968 273.812 203.848 273.939 203.761C274.066 203.674 274.214 203.624 274.368 203.616C274.462 203.616 274.555 203.635 274.642 203.672C274.729 203.709 274.807 203.764 274.872 203.832C274.942 203.898 274.998 203.978 275.035 204.067C275.072 204.156 275.09 204.251 275.088 204.348C275.086 204.518 275.036 204.685 274.944 204.828L273.888 206.52L276.084 206.46C276.186 206.454 276.288 206.47 276.383 206.507C276.479 206.545 276.565 206.602 276.636 206.676C276.759 206.819 276.827 207.002 276.827 207.192C276.827 207.381 276.759 207.564 276.636 207.708C276.565 207.782 276.479 207.839 276.383 207.876C276.288 207.914 276.186 207.93 276.084 207.924H273.864L274.848 209.46C274.959 209.645 275.021 209.856 275.028 210.072C275.031 210.169 275.015 210.266 274.98 210.357C274.945 210.447 274.892 210.53 274.824 210.6C274.761 210.667 274.684 210.721 274.6 210.758C274.515 210.795 274.424 210.815 274.332 210.816C274.183 210.814 274.038 210.768 273.914 210.685C273.791 210.602 273.694 210.485 273.636 210.348L272.64 208.584L271.644 210.348C271.585 210.489 271.487 210.61 271.361 210.697C271.236 210.784 271.088 210.833 270.936 210.84Z" fill="black"/>
<path d="M282 210.84C281.906 210.84 281.813 210.821 281.726 210.784C281.639 210.746 281.561 210.692 281.496 210.624C281.425 210.553 281.369 210.469 281.332 210.376C281.295 210.283 281.277 210.184 281.28 210.084C281.28 209.915 281.326 209.749 281.412 209.604L282.492 207.924H280.284C280.182 207.929 280.08 207.913 279.985 207.875C279.89 207.838 279.804 207.781 279.732 207.708C279.609 207.564 279.541 207.381 279.541 207.192C279.541 207.002 279.609 206.819 279.732 206.676C279.804 206.603 279.89 206.546 279.985 206.508C280.08 206.471 280.182 206.455 280.284 206.46L282.456 206.52L281.436 204.9C281.34 204.74 281.286 204.558 281.28 204.372C281.277 204.272 281.295 204.172 281.332 204.079C281.369 203.987 281.425 203.902 281.496 203.832C281.563 203.763 281.644 203.709 281.732 203.672C281.821 203.635 281.916 203.616 282.012 203.616C282.147 203.614 282.279 203.651 282.392 203.724C282.505 203.797 282.594 203.901 282.648 204.024L283.704 205.908L284.712 204.108C284.776 203.968 284.876 203.848 285.003 203.761C285.13 203.674 285.279 203.624 285.432 203.616C285.526 203.616 285.62 203.635 285.706 203.672C285.793 203.709 285.871 203.764 285.936 203.832C286.007 203.898 286.062 203.978 286.099 204.067C286.137 204.156 286.155 204.251 286.152 204.348C286.151 204.518 286.101 204.685 286.008 204.828L284.952 206.52L287.148 206.46C287.25 206.454 287.353 206.47 287.448 206.507C287.543 206.545 287.629 206.602 287.7 206.676C287.824 206.819 287.891 207.002 287.891 207.192C287.891 207.381 287.824 207.564 287.7 207.708C287.629 207.782 287.543 207.839 287.448 207.876C287.353 207.914 287.25 207.93 287.148 207.924H284.928L285.912 209.46C286.023 209.645 286.085 209.856 286.092 210.072C286.096 210.169 286.079 210.266 286.044 210.357C286.009 210.447 285.956 210.53 285.888 210.6C285.825 210.667 285.749 210.721 285.664 210.758C285.58 210.795 285.489 210.815 285.396 210.816C285.248 210.812 285.103 210.766 284.98 210.683C284.857 210.6 284.76 210.484 284.7 210.348L283.704 208.584L282.708 210.348C282.649 210.489 282.551 210.61 282.426 210.697C282.3 210.784 282.153 210.833 282 210.84Z" fill="black"/>
<path d="M292.969 210.84C292.875 210.84 292.781 210.821 292.695 210.784C292.608 210.746 292.53 210.692 292.465 210.624C292.394 210.553 292.338 210.469 292.301 210.376C292.264 210.283 292.246 210.184 292.249 210.084C292.254 209.916 292.3 209.751 292.381 209.604L293.461 207.924H291.253C291.151 207.929 291.049 207.913 290.954 207.875C290.858 207.838 290.772 207.781 290.701 207.708C290.578 207.564 290.51 207.381 290.51 207.192C290.51 207.002 290.578 206.819 290.701 206.676C290.772 206.603 290.858 206.546 290.954 206.508C291.049 206.471 291.151 206.455 291.253 206.46L293.425 206.52L292.405 204.9C292.309 204.74 292.255 204.558 292.249 204.372C292.246 204.272 292.264 204.172 292.301 204.079C292.338 203.987 292.394 203.902 292.465 203.832C292.532 203.763 292.612 203.709 292.701 203.672C292.79 203.635 292.885 203.616 292.981 203.616C293.115 203.614 293.247 203.651 293.36 203.724C293.473 203.797 293.563 203.901 293.617 204.024L294.673 205.908L295.681 204.108C295.744 203.968 295.845 203.848 295.972 203.761C296.099 203.674 296.247 203.624 296.401 203.616C296.495 203.614 296.589 203.633 296.676 203.67C296.763 203.707 296.841 203.762 296.905 203.832C296.975 203.898 297.031 203.978 297.068 204.067C297.105 204.156 297.123 204.251 297.121 204.348C297.119 204.518 297.069 204.685 296.977 204.828L295.921 206.52L298.117 206.46C298.219 206.454 298.321 206.47 298.417 206.507C298.512 206.545 298.598 206.602 298.669 206.676C298.792 206.819 298.86 207.002 298.86 207.192C298.86 207.381 298.792 207.564 298.669 207.708C298.598 207.782 298.512 207.839 298.417 207.876C298.321 207.914 298.219 207.93 298.117 207.924H295.897L296.881 209.46C296.992 209.645 297.054 209.856 297.061 210.072C297.064 210.169 297.048 210.266 297.013 210.357C296.978 210.447 296.925 210.53 296.857 210.6C296.794 210.667 296.718 210.721 296.633 210.758C296.548 210.795 296.457 210.815 296.365 210.816C296.216 210.812 296.072 210.766 295.949 210.683C295.825 210.6 295.728 210.484 295.669 210.348L294.673 208.584L293.677 210.348C293.618 210.489 293.52 210.61 293.394 210.697C293.269 210.784 293.121 210.833 292.969 210.84Z" fill="black"/>
<path d="M303.985 210.84C303.89 210.84 303.797 210.821 303.71 210.784C303.624 210.746 303.546 210.692 303.481 210.624C303.41 210.553 303.354 210.469 303.317 210.376C303.279 210.283 303.262 210.184 303.265 210.084C303.27 209.916 303.315 209.751 303.397 209.604L304.477 207.924H302.281C302.177 207.93 302.072 207.914 301.975 207.877C301.878 207.839 301.79 207.782 301.717 207.708C301.593 207.564 301.525 207.381 301.525 207.192C301.525 207.002 301.593 206.819 301.717 206.676C301.79 206.602 301.878 206.544 301.975 206.507C302.072 206.47 302.177 206.454 302.281 206.46L304.441 206.52L303.421 204.9C303.324 204.74 303.271 204.558 303.265 204.372C303.262 204.272 303.279 204.172 303.317 204.079C303.354 203.987 303.41 203.902 303.481 203.832C303.548 203.763 303.628 203.709 303.717 203.672C303.805 203.635 303.9 203.616 303.997 203.616C304.131 203.614 304.263 203.651 304.376 203.724C304.489 203.797 304.578 203.901 304.633 204.024L305.689 205.908L306.697 204.108C306.76 203.968 306.861 203.848 306.988 203.761C307.115 203.674 307.263 203.624 307.417 203.616C307.511 203.614 307.605 203.633 307.692 203.67C307.778 203.707 307.856 203.762 307.921 203.832C307.991 203.898 308.046 203.978 308.084 204.067C308.121 204.156 308.139 204.251 308.137 204.348C308.135 204.518 308.085 204.685 307.993 204.828L306.937 206.52L309.133 206.46C309.235 206.454 309.337 206.47 309.432 206.507C309.528 206.545 309.614 206.602 309.685 206.676C309.808 206.819 309.876 207.002 309.876 207.192C309.876 207.381 309.808 207.564 309.685 207.708C309.614 207.782 309.528 207.839 309.432 207.876C309.337 207.914 309.235 207.93 309.133 207.924H306.913L307.897 209.46C308.008 209.645 308.07 209.856 308.077 210.072C308.08 210.169 308.064 210.266 308.029 210.357C307.994 210.447 307.94 210.53 307.873 210.6C307.809 210.667 307.733 210.721 307.649 210.758C307.564 210.795 307.473 210.815 307.381 210.816C307.232 210.812 307.088 210.766 306.964 210.683C306.841 210.6 306.744 210.484 306.685 210.348L305.689 208.584L304.693 210.348C304.633 210.489 304.535 210.61 304.41 210.697C304.285 210.784 304.137 210.833 303.985 210.84Z" fill="black"/>
<path d="M315 210.84C314.906 210.84 314.813 210.821 314.726 210.784C314.639 210.746 314.561 210.692 314.496 210.624C314.425 210.553 314.369 210.469 314.332 210.376C314.295 210.283 314.277 210.184 314.28 210.084C314.28 209.915 314.326 209.749 314.412 209.604L315.492 207.924H313.284C313.182 207.929 313.08 207.913 312.985 207.875C312.89 207.838 312.804 207.781 312.732 207.708C312.609 207.564 312.541 207.381 312.541 207.192C312.541 207.003 312.609 206.819 312.732 206.676C312.804 206.603 312.89 206.546 312.985 206.508C313.08 206.471 313.182 206.455 313.284 206.46L315.456 206.52L314.4 204.96C314.304 204.8 314.25 204.618 314.244 204.432C314.241 204.332 314.259 204.232 314.296 204.139C314.333 204.047 314.389 203.962 314.46 203.892C314.527 203.823 314.608 203.769 314.696 203.732C314.785 203.695 314.88 203.676 314.976 203.676C315.111 203.674 315.242 203.712 315.356 203.784C315.469 203.857 315.558 203.961 315.612 204.084L316.668 205.968L317.676 204.168C317.74 204.028 317.84 203.908 317.967 203.821C318.094 203.734 318.243 203.684 318.396 203.676C318.491 203.674 318.584 203.693 318.671 203.73C318.758 203.767 318.836 203.822 318.9 203.892C318.97 203.958 319.026 204.038 319.063 204.127C319.101 204.216 319.119 204.311 319.116 204.408C319.115 204.578 319.065 204.745 318.972 204.888L317.916 206.58L320.112 206.52C320.214 206.514 320.317 206.53 320.412 206.567C320.507 206.605 320.593 206.662 320.664 206.736C320.787 206.879 320.855 207.063 320.855 207.252C320.855 207.441 320.787 207.624 320.664 207.768C320.593 207.842 320.507 207.899 320.412 207.936C320.317 207.974 320.214 207.99 320.112 207.984H317.892L318.876 209.52C318.987 209.705 319.049 209.916 319.056 210.132C319.06 210.229 319.043 210.326 319.008 210.417C318.973 210.508 318.92 210.59 318.852 210.66C318.789 210.727 318.713 210.781 318.628 210.818C318.544 210.855 318.452 210.875 318.36 210.876C318.212 210.872 318.067 210.826 317.944 210.743C317.821 210.66 317.724 210.544 317.664 210.408L316.668 208.644L315.672 210.408C315.608 210.532 315.511 210.637 315.394 210.713C315.276 210.789 315.14 210.833 315 210.84Z" fill="black"/>
<path d="M326.016 210.84C325.922 210.84 325.829 210.821 325.742 210.784C325.655 210.747 325.577 210.692 325.512 210.624C325.441 210.554 325.385 210.469 325.348 210.376C325.311 210.284 325.293 210.184 325.296 210.084C325.302 209.916 325.347 209.751 325.428 209.604L326.508 207.924H324.312C324.21 207.932 324.107 207.916 324.012 207.879C323.916 207.842 323.83 207.783 323.76 207.708C323.629 207.568 323.557 207.384 323.557 207.192C323.557 207 323.629 206.816 323.76 206.676C323.83 206.601 323.916 206.543 324.012 206.505C324.107 206.468 324.21 206.452 324.312 206.46L326.472 206.52L325.452 204.9C325.356 204.74 325.302 204.558 325.296 204.372C325.293 204.274 325.309 204.176 325.345 204.085C325.38 203.993 325.434 203.909 325.502 203.839C325.57 203.768 325.652 203.712 325.742 203.674C325.833 203.636 325.93 203.616 326.028 203.616C326.162 203.614 326.294 203.652 326.408 203.724C326.521 203.797 326.61 203.901 326.664 204.024L327.72 205.908L328.728 204.108C328.792 203.968 328.892 203.848 329.019 203.761C329.146 203.675 329.295 203.624 329.448 203.616C329.543 203.613 329.637 203.631 329.724 203.668C329.811 203.705 329.889 203.761 329.952 203.832C330.022 203.898 330.078 203.978 330.115 204.067C330.153 204.156 330.171 204.252 330.168 204.348C330.167 204.518 330.117 204.685 330.024 204.828L328.968 206.52L331.164 206.46C331.266 206.454 331.369 206.47 331.464 206.508C331.559 206.545 331.645 206.602 331.716 206.676C331.839 206.82 331.907 207.003 331.907 207.192C331.907 207.381 331.839 207.564 331.716 207.708C331.645 207.782 331.559 207.839 331.464 207.877C331.369 207.914 331.266 207.93 331.164 207.924H328.944L329.928 209.46C330.039 209.645 330.101 209.856 330.108 210.072C330.111 210.167 330.096 210.261 330.063 210.349C330.029 210.438 329.979 210.519 329.914 210.588C329.85 210.657 329.772 210.713 329.686 210.752C329.6 210.791 329.507 210.813 329.412 210.816C329.264 210.812 329.119 210.766 328.996 210.684C328.873 210.601 328.776 210.484 328.716 210.348L327.72 208.584L326.724 210.348C326.665 210.489 326.567 210.61 326.442 210.697C326.316 210.784 326.169 210.834 326.016 210.84Z" fill="black"/>
<path d="M337.032 210.84C336.937 210.84 336.844 210.821 336.758 210.784C336.671 210.747 336.593 210.692 336.528 210.624C336.457 210.554 336.401 210.469 336.364 210.376C336.327 210.284 336.309 210.184 336.312 210.084C336.317 209.916 336.363 209.751 336.444 209.604L337.524 207.924H335.316C335.215 207.93 335.115 207.914 335.022 207.876C334.928 207.839 334.844 207.782 334.776 207.708C334.645 207.568 334.572 207.384 334.572 207.192C334.572 207 334.645 206.816 334.776 206.676C334.844 206.603 334.928 206.545 335.022 206.508C335.115 206.47 335.215 206.454 335.316 206.46L337.488 206.52L336.468 204.9C336.372 204.74 336.318 204.558 336.312 204.372C336.309 204.274 336.325 204.176 336.36 204.085C336.396 203.993 336.449 203.909 336.517 203.839C336.586 203.768 336.668 203.712 336.758 203.674C336.848 203.636 336.946 203.616 337.044 203.616C337.178 203.614 337.31 203.652 337.423 203.724C337.536 203.797 337.626 203.901 337.68 204.024L338.736 205.908L339.744 204.108C339.807 203.968 339.908 203.848 340.035 203.761C340.162 203.675 340.31 203.624 340.464 203.616C340.558 203.613 340.653 203.631 340.74 203.668C340.827 203.705 340.905 203.761 340.968 203.832C341.038 203.898 341.094 203.978 341.131 204.067C341.168 204.156 341.186 204.252 341.184 204.348C341.182 204.518 341.132 204.685 341.04 204.828L339.984 206.52L342.18 206.46C342.282 206.454 342.384 206.47 342.479 206.508C342.575 206.545 342.661 206.602 342.732 206.676C342.855 206.82 342.923 207.003 342.923 207.192C342.923 207.381 342.855 207.564 342.732 207.708C342.661 207.782 342.575 207.839 342.479 207.877C342.384 207.914 342.282 207.93 342.18 207.924H339.96L340.944 209.46C341.055 209.645 341.117 209.856 341.124 210.072C341.127 210.167 341.112 210.261 341.078 210.349C341.045 210.438 340.995 210.519 340.93 210.588C340.865 210.657 340.788 210.713 340.702 210.752C340.615 210.791 340.522 210.813 340.428 210.816C340.279 210.812 340.135 210.766 340.011 210.684C339.888 210.601 339.791 210.484 339.732 210.348L338.736 208.584L337.74 210.348C337.681 210.489 337.583 210.61 337.457 210.697C337.332 210.784 337.184 210.834 337.032 210.84Z" fill="black"/>
<path d="M348 210.84C347.906 210.84 347.813 210.821 347.726 210.784C347.64 210.747 347.561 210.692 347.496 210.624C347.425 210.554 347.37 210.469 347.333 210.376C347.295 210.284 347.278 210.184 347.28 210.084C347.286 209.916 347.331 209.751 347.413 209.604L348.492 207.924H346.284C346.184 207.93 346.084 207.914 345.99 207.876C345.897 207.839 345.813 207.782 345.744 207.708C345.614 207.568 345.541 207.384 345.541 207.192C345.541 207 345.614 206.816 345.744 206.676C345.813 206.603 345.897 206.545 345.99 206.508C346.084 206.47 346.184 206.454 346.284 206.46L348.456 206.52L347.436 204.9C347.34 204.74 347.287 204.558 347.28 204.372C347.278 204.272 347.295 204.173 347.333 204.08C347.37 203.987 347.425 203.903 347.496 203.832C347.564 203.763 347.644 203.709 347.733 203.672C347.821 203.635 347.916 203.616 348.013 203.616C348.147 203.614 348.279 203.652 348.392 203.724C348.505 203.797 348.594 203.901 348.649 204.024L349.705 205.908L350.713 204.108C350.776 203.968 350.877 203.848 351.004 203.761C351.131 203.675 351.279 203.624 351.432 203.616C351.527 203.613 351.621 203.631 351.708 203.668C351.796 203.705 351.873 203.761 351.936 203.832C352.007 203.898 352.062 203.978 352.1 204.067C352.137 204.156 352.155 204.252 352.152 204.348C352.151 204.518 352.101 204.685 352.008 204.828L350.952 206.52L353.149 206.46C353.251 206.454 353.353 206.47 353.448 206.508C353.543 206.545 353.63 206.602 353.7 206.676C353.824 206.82 353.892 207.003 353.892 207.192C353.892 207.381 353.824 207.564 353.7 207.708C353.63 207.782 353.543 207.839 353.448 207.877C353.353 207.914 353.251 207.93 353.149 207.924H350.928L351.913 209.46C352.024 209.645 352.085 209.856 352.093 210.072C352.096 210.169 352.08 210.266 352.045 210.357C352.01 210.448 351.956 210.53 351.888 210.6C351.825 210.667 351.749 210.721 351.665 210.758C351.58 210.796 351.489 210.815 351.396 210.816C351.248 210.812 351.104 210.766 350.98 210.684C350.857 210.601 350.76 210.484 350.7 210.348L349.705 208.584L348.708 210.348C348.649 210.489 348.551 210.61 348.426 210.697C348.301 210.784 348.153 210.834 348 210.84Z" fill="black"/>
<path d="M385.752 237.384H400.428" stroke="white" stroke-width="3" stroke-linecap="round" stroke-linejoin="round"/>
<path d="M182.197 129.324V226.8C182.197 229.623 183.319 232.331 185.315 234.327C187.311 236.323 190.018 237.444 192.841 237.444H371.821" stroke="white" stroke-width="3" stroke-linecap="round" stroke-linejoin="round"/>
<path d="M182.197 103.476V118.092" stroke="white" stroke-width="3" stroke-linecap="round" stroke-linejoin="round"/>
</svg>
